Coordinates
version=1
nRows=13
nColumns=40
inDegrees=yes

Units are S.I. units (second, meters, Newtons, ...)
Angles are in degrees.

endheader
time	pelvis_tilt	pelvis_list	pelvis_rotation	pelvis_tx	pelvis_ty	pelvis_tz	hip_flexion_r	hip_adduction_r	hip_rotation_r	knee_angle_r	knee_angle_r_beta	ankle_angle_r	subtalar_angle_r	mtp_angle_r	hip_flexion_l	hip_adduction_l	hip_rotation_l	knee_angle_l	knee_angle_l_beta	ankle_angle_l	subtalar_angle_l	mtp_angle_l	lumbar_extension	lumbar_bending	lumbar_rotation	arm_flex_r	arm_add_r	arm_rot_r	elbow_flex_r	pro_sup_r	wrist_flex_r	wrist_dev_r	arm_flex_l	arm_add_l	arm_rot_l	elbow_flex_l	pro_sup_l	wrist_flex_l	wrist_dev_l
     13.62300000	     -2.51755841	     -5.68840739	      6.08218801	      1.00533063	      0.92667599	      0.49743172	     -0.01798514	      4.54534708	    -19.14585061	      9.76825359	      9.76825359	     15.16124453	      7.47249311	     -5.70140626	     28.53210755	     -7.25788486	     -3.35870784	     23.45438676	     23.45438676	      6.79388562	    -10.72337252	      7.39207916	     -9.52824971	      7.21468353	      4.30481125	     31.70496163	    -17.45518773	     -8.03197614	     68.15614518	     45.34474037	      0.00000000	      0.00000000	     -8.21424243	     -5.47917402	     -1.34079126	     27.16578024	     45.47724720	      0.00000000	      0.00000000
     13.63600000	     -2.50645747	     -5.69190297	      5.90878026	      1.00718262	      0.92566758	      0.49585650	     -0.49475000	      4.47329489	    -18.90310284	      9.85822732	      9.85822732	     15.59077408	      7.45457886	     -5.78142310	     28.05442183	     -7.15484477	     -3.39089898	     24.05034922	     24.05034922	      6.65054245	    -11.16854603	      7.34336475	     -9.28300950	      7.06369161	      4.26039495	     30.83953332	    -17.14076416	     -7.84229511	     67.80827381	     45.34584959	      0.00000000	      0.00000000	     -7.89057021	     -5.83193447	     -1.47913011	     27.28657634	     45.50814382	      0.00000000	      0.00000000
     13.64900000	     -2.57011687	     -5.66411078	      5.73023916	      1.00897157	      0.92460747	      0.49411951	     -0.75977413	      4.33594762	    -18.37115452	     10.19784351	     10.19784351	     16.17498837	      6.89525162	     -5.35418831	     27.62639870	     -6.87847980	     -2.89390260	     24.48176906	     24.48176906	      6.19625892	    -12.44306403	      7.08822502	     -8.96626626	      6.86557845	      4.43574704	     29.81933816	    -17.33553727	     -7.30267965	     67.04201250	     45.35009636	      0.00000000	      0.00000000	     -7.40347905	     -6.09339421	     -2.05875029	     27.56103205	     45.62300104	      0.00000000	      0.00000000
     13.66200000	     -2.58845842	     -5.60416097	      5.56103133	      1.01075008	      0.92365494	      0.49233165	     -1.00247343	      4.13868604	    -17.88248526	     10.68014527	     10.68014527	     16.77383241	      6.33668457	     -4.89053795	     27.23712568	     -6.65578159	     -2.57737293	     24.98981687	     24.98981687	      6.01089330	    -13.27284497	      6.66037490	     -8.72766534	      6.63023008	      4.38855114	     28.80262768	    -17.26804512	     -6.65908637	     66.41116700	     45.34526142	      0.00000000	      0.00000000	     -6.89477850	     -6.38354745	     -2.55085585	     27.74492843	     45.71998574	      0.00000000	      0.00000000
     13.67500000	     -2.61313549	     -5.47641386	      5.39538253	      1.01250226	      0.92286258	      0.49042398	     -1.15185805	      3.84237922	    -17.32316243	     11.33173879	     11.33173879	     17.41037920	      5.59728364	     -4.25411190	     26.86794783	     -6.37559333	     -2.28142858	     25.44920802	     25.44920802	      5.97590983	    -14.00272765	      6.15649275	     -8.49843871	      6.33609375	      4.28473637	     27.71397769	    -17.20930854	     -5.86089141	     65.70927016	     45.33699638	      0.00000000	      0.00000000	     -6.30983734	     -6.68252145	     -3.07664863	     27.88036770	     45.82222671	      0.00000000	      0.00000000
     13.68800000	     -2.61777660	     -5.33039829	      5.25750192	      1.01409569	      0.92225778	      0.48842916	     -1.23234276	      3.50054238	    -16.79617479	     12.12874917	     12.12874917	     17.97736101	      4.83244224	     -3.61610627	     26.54354747	     -6.10630083	     -2.06379642	     25.91871511	     25.91871511	      6.15114406	    -14.55946637	      5.66814373	     -8.32314931	      5.99470169	      4.10832471	     26.56868945	    -17.10465825	     -5.03846095	     64.99080863	     45.32794963	      0.00000000	      0.00000000	     -5.64266502	     -6.98955538	     -3.55520521	     27.95907594	     45.91587483	      0.00000000	      0.00000000
     13.70100000	     -2.59813920	     -5.13720937	      5.12128562	      1.01557001	      0.92189426	      0.48628022	     -1.20128926	      3.05143258	    -16.31135083	     13.17237517	     13.17237517	     18.43229298	      4.03225040	     -3.25084821	     26.21208102	     -5.81005955	     -1.94695969	     26.37114887	     26.37114887	      6.51586925	    -14.95623320	      5.27816489	     -8.21985863	      5.63289757	      3.95910186	     25.34862191	    -16.99210326	     -4.34258501	     64.25131692	     45.32312986	      0.00000000	      0.00000000	     -4.83771114	     -7.30234172	     -3.87347778	     28.08026383	     45.98332366	      0.00000000	      0.00000000
     13.71400000	     -2.45298932	     -5.03252840	      5.08949674	      1.01705403	      0.92201071	      0.48394176	     -1.45806738	      2.72894215	    -16.12244377	     13.87309540	     13.87309540	     18.53555113	      3.63793660	     -3.19775337	     25.76801134	     -5.60049626	     -1.80100309	     26.77468759	     26.77468759	      7.02779082	    -15.17124806	      4.97460352	     -8.25204498	      5.40869763	      3.56187356	     23.99709804	    -16.52225352	     -3.93742650	     63.71852789	     45.31984652	      0.00000000	      0.00000000	     -4.10170304	     -7.66889611	     -3.97466839	     28.25859870	     46.01285190	      0.00000000	      0.00000000
     13.72700000	     -2.59830877	     -4.74133008	      4.87917987	      1.01791300	      0.92177674	      0.48163517	     -0.60311528	      1.99342806	    -15.38208513	     16.07010112	     16.07010112	     19.03581341	      2.13503398	     -2.97465507	     25.56165994	     -5.24374246	     -2.03008777	     27.02425820	     27.02425820	      7.51943299	    -15.38236275	      4.60669812	     -8.06522055	      4.97251101	      3.64703188	     22.64626097	    -16.75820450	     -2.95385917	     62.61352592	     45.31626996	      0.00000000	      0.00000000	     -2.95896840	     -7.93484836	     -4.27417893	     28.24102914	     46.08226800	      0.00000000	      0.00000000
     13.74000000	     -2.50727030	     -4.51024028	      4.72897996	      1.01881634	      0.92218333	      0.47925751	     -0.10049559	      1.34141150	    -14.87533881	     18.04188329	     18.04188329	     19.13926060	      1.18197666	     -3.00606402	     25.07739516	     -4.96542571	     -2.21577853	     27.21386711	     27.21386711	      8.04026604	    -15.38007468	      4.28445030	     -8.14498531	      4.60193300	      3.47978991	     21.30961891	    -16.65183897	     -2.22198126	     61.72454151	     45.31374710	      0.00000000	      0.00000000	     -1.88098874	     -8.23007914	     -4.45707924	     28.28627028	     46.13094164	      0.00000000	      0.00000000
     13.75300000	     -2.47949018	     -4.33104159	      4.55739697	      1.01948722	      0.92266662	      0.47692068	      0.71042213	      0.67683842	    -14.41354199	     20.40218349	     20.40218349	     19.10936217	      0.18863717	     -3.26463502	     24.60906580	     -4.75166587	     -2.49050445	     27.26918692	     27.26918692	      8.52978389	    -15.27955964	      3.98144432	     -8.18455972	      4.25899880	      3.29982769	     19.88195937	    -16.54972763	     -1.50848582	     60.73254859	     45.31476441	      0.00000000	      0.00000000	     -0.70476694	     -8.47322460	     -4.60588387	     28.35325265	     46.17539932	      0.00000000	      0.00000000
     13.76600000	     -2.60691322	     -4.16423351	      4.36902791	      1.01985981	      0.92302953	      0.47450099	      1.99518583	     -0.04712691	    -13.87899512	     23.25872134	     23.25872134	     18.86014664	     -1.06069581	     -3.74737497	     24.25439885	     -4.53144359	     -2.86611133	     27.19922145	     27.19922145	      9.03266734	    -15.13226218	      3.62363881	     -8.06375357	      4.04287048	      3.31001789	     18.46183182	    -16.51126912	     -0.53484923	     59.41745867	     45.31740604	      0.00000000	      0.00000000	      0.57976280	     -8.66163772	     -4.81328242	     28.17903513	     46.23090753	      0.00000000	      0.00000000
     13.77900000	     -2.56263211	     -3.99245998	      4.15861731	      1.02020851	      0.92371344	      0.47215950	      3.23812762	     -0.81184872	    -13.39459835	     26.34190071	     26.34190071	     18.36728584	     -2.11103549	     -4.46000522	     23.64883634	     -4.32829951	     -3.27367710	     27.03529536	     27.03529536	      9.51044939	    -14.91790317	      3.30110624	     -8.19099614	      3.78728543	      3.17510211	     17.06900312	    -16.34769749	      0.16800845	     58.22117772	     45.32572374	      0.00000000	      0.00000000	      1.83734081	     -8.89740450	     -4.96265066	     28.21792700	     46.27605682	      0.00000000	      0.00000000
